<svg width="61" height="60" viewBox="0 0 61 60" fill="none" xmlns="http://www.w3.org/2000/svg">
<g clip-path="url(#clip0_864_8258)">
<path d="M2.28315 38.4535H38.1087C38.4437 38.4536 38.7655 38.3226 39.0052 38.0886C39.245 37.8545 39.3838 37.5361 39.3918 37.2011V1.34479C39.3918 1.00448 39.2566 0.678111 39.016 0.437465C38.7754 0.196828 38.449 0.0616455 38.1087 0.0616455H2.28315C1.94284 0.0616455 1.61647 0.196828 1.37583 0.437465C1.13519 0.678111 1 1.00448 1 1.34479V37.2011C1.00804 37.5361 1.14677 37.8545 1.38655 38.0886C1.62631 38.3226 1.9481 38.4536 2.28315 38.4535ZM3.5663 2.62794H36.8255V35.8872H3.5663V2.62794Z" fill="white"/>
<path d="M38.2626 42.1283C37.9224 42.1283 37.5959 42.2635 37.3553 42.5041C37.1147 42.7447 36.9795 43.071 36.9795 43.4114V50.2891L29.7939 45.5363C29.5507 45.3841 29.2639 45.317 28.9784 45.3456C28.6929 45.3742 28.4251 45.4969 28.217 45.6944C28.009 45.8919 27.8725 46.153 27.829 46.4366C27.7856 46.7201 27.8376 47.0101 27.9769 47.2609L30.4303 51.367H10.2079L12.651 47.4662C12.7956 47.2188 12.854 46.9303 12.817 46.6461C12.7799 46.362 12.6496 46.0981 12.4464 45.896C12.2432 45.694 11.9785 45.5652 11.6942 45.5298C11.4097 45.4943 11.1217 45.5545 10.8751 45.7006L3.5663 50.3404V43.4114C3.5663 43.071 3.43111 42.7447 3.19047 42.5041C2.94983 42.2635 2.62346 42.1283 2.28315 42.1283C1.94284 42.1283 1.61647 42.2635 1.37583 42.5041C1.13519 42.7447 1 43.071 1 43.4114V52.6501C1.0125 52.8534 1.07068 53.0513 1.1702 53.229C1.26973 53.4066 1.40804 53.5597 1.57485 53.6766L10.7109 59.7844C10.9204 59.9248 11.167 59.9999 11.4192 60C11.6425 59.9985 11.8617 59.9393 12.0554 59.828C12.249 59.7168 12.4106 59.5572 12.5243 59.365C12.638 59.1727 12.7 58.9543 12.7042 58.731C12.7084 58.5076 12.6547 58.287 12.5483 58.0907L10.095 53.9846H30.3482L27.9461 57.8648C27.7946 58.1107 27.7305 58.4005 27.764 58.6873C27.7976 58.9741 27.9269 59.2412 28.1311 59.4455C28.3353 59.6496 28.6025 59.779 28.8893 59.8125C29.1761 59.8461 29.4659 59.7819 29.7117 59.6304L38.9504 53.769C39.1816 53.6249 39.3585 53.4083 39.4534 53.1531C39.5178 53.0001 39.5526 52.8364 39.5561 52.6706V43.432C39.5588 43.2608 39.5273 43.091 39.4634 42.9321C39.3995 42.7734 39.3045 42.6291 39.1839 42.5076C39.0634 42.3861 38.9198 42.29 38.7616 42.2249C38.6035 42.1597 38.4338 42.1268 38.2626 42.1283Z" fill="white"/>
<path d="M60.7024 27.2438C60.4996 27.0354 60.2333 26.9001 59.9454 26.8593C59.6575 26.8184 59.3641 26.8743 59.1113 27.018L55.0053 29.4816V9.26946L58.906 11.7126C59.1518 11.8641 59.4416 11.9283 59.7285 11.8948C60.0153 11.8612 60.2824 11.7318 60.4867 11.5276C60.6909 11.3234 60.8202 11.0562 60.8538 10.7694C60.8873 10.4826 60.8232 10.1928 60.6717 9.94696L54.9129 0.81095C54.8171 0.572931 54.6529 0.368736 54.4408 0.224335C54.2288 0.079935 53.9786 0.00184773 53.7221 0H44.4834C44.1431 0 43.8167 0.135193 43.5761 0.375829C43.3355 0.616466 43.2003 0.942837 43.2003 1.28315C43.2003 1.62346 43.3355 1.94983 43.5761 2.19047C43.8167 2.43111 44.1431 2.5663 44.4834 2.5663H51.3509L46.557 9.75192C46.4093 9.99428 46.3462 10.2787 46.3775 10.5608C46.4087 10.8429 46.5326 11.1066 46.7297 11.3108C46.9268 11.515 47.1861 11.648 47.4668 11.6892C47.7477 11.7302 48.0342 11.6772 48.2816 11.5381L52.3876 9.08469V29.3071L48.4766 26.9359C48.23 26.7898 47.9419 26.7297 47.6575 26.7651C47.3731 26.8005 47.1086 26.9293 46.9053 27.1314C46.7021 27.3334 46.5717 27.5972 46.5346 27.8815C46.4977 28.1656 46.556 28.4541 46.7007 28.7015L51.3201 36.0205H44.4321C44.0917 36.0205 43.7654 36.1557 43.5248 36.3964C43.2842 36.637 43.149 36.9634 43.149 37.3037C43.149 37.644 43.2842 37.9704 43.5248 38.211C43.7654 38.4517 44.0917 38.5868 44.4321 38.5868H53.6708C53.8255 38.5819 53.9782 38.5506 54.1225 38.4945C54.3819 38.4081 54.6056 38.2386 54.7589 38.012L60.7948 28.8349C60.961 28.5981 61.0423 28.3121 61.0256 28.0232C61.0088 27.7345 60.8949 27.4598 60.7024 27.2438Z" fill="white"/>
</g>
<defs>
<clipPath id="clip0_864_8258">
<rect width="60" height="60" fill="white" transform="translate(0.720093)"/>
</clipPath>
</defs>
</svg>
