<svg width="80" height="80" viewBox="0 0 80 80" fill="none" xmlns="http://www.w3.org/2000/svg">
<rect width="80" height="80" rx="40" fill="#CE2127"/>
<path d="M51.4422 51.02H37.3302C38.1942 48.86 41.8422 46.844 43.9542 45.356C48.2742 42.188 51.1542 39.212 51.1542 33.356C51.1542 26.444 45.9222 22.844 40.2102 22.844C33.4422 22.844 28.3062 27.404 28.3062 34.124H34.9302C34.8822 31.388 37.0422 29.324 40.0662 29.324C42.9942 29.324 44.5782 31.244 44.5782 33.74C44.5782 36.476 42.1782 38.684 39.2022 40.748C34.2102 44.348 28.2102 47.612 28.2102 55.244V57.5H51.4422V51.02Z" fill="white"/>
</svg>
