<svg width="253" height="200" viewBox="0 0 253 200" fill="none" xmlns="http://www.w3.org/2000/svg">
<path d="M233.324 112.684L123.396 200.044C121.212 201.864 120.484 205.504 122.668 207.688C123.76 209.144 125.216 209.872 127.036 209.872C128.128 209.872 129.584 209.508 130.312 208.78L240.24 121.42C242.424 119.6 243.152 115.96 240.968 113.776C239.148 111.228 235.872 110.864 233.324 112.684Z" fill="#CE2127"/>
<path d="M152.88 151.632C154.336 151.632 155.792 151.632 157.248 151.268C172.172 149.084 182.728 134.888 180.18 119.6C179.088 112.32 175.084 105.768 169.26 101.4C163.436 97.032 156.156 95.212 148.876 96.304C141.596 97.396 135.044 101.4 130.676 107.224C126.308 113.048 124.488 120.328 125.58 127.608C127.764 141.804 139.776 151.632 152.88 151.632ZM150.332 107.588C151.06 107.588 152.152 107.224 152.88 107.224C160.888 107.224 168.168 113.048 169.26 121.42C170.716 130.52 164.528 138.892 155.428 140.348C146.328 141.804 137.956 135.616 136.5 126.516C135.044 117.416 141.596 109.044 150.332 107.588Z" fill="#CE2127"/>
<path d="M211.12 169.832C195.832 169.832 183.456 182.208 183.456 197.496C183.456 212.784 195.832 225.16 211.12 225.16C226.408 225.16 238.784 212.784 238.784 197.496C238.42 182.208 226.044 169.832 211.12 169.832ZM211.12 213.876C202.02 213.876 194.376 206.232 194.376 197.132C194.376 188.032 202.02 180.388 211.12 180.388C220.22 180.388 227.864 188.032 227.864 197.132C227.5 206.596 220.22 213.876 211.12 213.876Z" fill="#CE2127"/>
<path d="M347.256 157.092C347.256 156.728 347.62 156 347.62 155.636C347.62 139.984 331.24 131.976 317.044 125.06C306.852 119.964 295.932 114.504 293.02 107.952C290.108 101.036 294.112 89.752 298.116 79.196C303.576 64.272 309.036 48.984 298.844 38.792C288.652 28.6 274.092 32.24 259.532 35.516C249.34 37.7 238.784 40.248 231.868 37.336C224.952 34.424 219.128 25.324 213.668 16.588C205.66 4.21199 196.924 -9.98401 181.636 -9.98401C166.348 -9.98401 157.612 4.21199 149.968 16.952C144.508 26.052 139.048 35.152 132.132 38.064C125.216 40.976 114.296 38.428 104.104 35.88C89.544 32.24 74.62 28.6 64.792 38.428C54.6 48.62 59.696 63.908 64.428 78.832C68.068 89.752 71.344 100.672 68.432 107.952C65.52 114.868 55.328 119.964 45.5 125.06C31.668 132.34 16.016 140.348 16.016 155.636C16.016 156 16.016 156.728 16.38 157.092C16.38 157.456 16.016 158.184 16.016 158.548C16.016 173.836 31.668 182.208 45.5 189.124C55.328 194.22 65.52 199.316 68.432 206.232C71.344 213.148 67.704 224.432 64.428 235.352C59.696 250.276 54.6 265.564 64.792 275.756C74.984 285.948 89.908 281.944 104.104 278.304C114.296 275.756 125.216 273.208 132.132 276.12C139.048 279.032 144.508 288.132 149.968 297.232C157.612 309.972 166.348 324.168 181.636 324.168C196.924 324.168 206.024 309.972 213.668 297.596C219.128 288.86 224.952 279.76 231.868 276.848C239.148 273.936 249.34 276.12 259.532 278.668C273.728 281.944 288.652 285.584 298.844 275.392C309.036 265.2 303.576 249.912 298.116 234.988C294.112 224.068 290.108 213.148 293.02 206.232C295.932 199.316 306.488 194.22 317.044 189.124C331.24 181.844 347.62 173.836 347.62 158.548C347.62 157.82 347.256 157.456 347.256 157.092ZM311.948 179.296C299.936 185.484 287.196 191.672 282.828 202.228C278.096 213.148 283.192 226.252 287.56 238.992C291.928 251.004 296.296 262.652 290.836 267.748C285.012 273.572 273.728 271.024 261.716 268.112C249.704 265.2 237.692 262.652 227.136 267.02C216.944 271.388 210.392 281.58 204.204 291.772C197.288 302.692 190.736 313.248 181.272 313.248C172.172 313.248 165.62 302.692 158.704 291.408C152.516 280.852 145.964 270.296 135.772 265.928C125.216 261.56 112.84 264.472 100.828 267.748C88.816 270.66 77.532 273.572 71.708 268.112C66.248 262.652 69.888 251.004 73.892 238.992C77.896 226.252 82.264 213.148 77.532 202.592C73.164 192.036 61.152 185.848 49.504 180.024C37.492 173.836 26.208 168.012 26.208 158.912C26.208 158.548 26.208 157.82 25.844 157.456C25.844 157.092 26.208 156.364 26.208 156C26.208 147.264 37.492 141.44 49.504 134.888C61.152 129.064 73.164 122.876 77.532 112.32C81.9 101.4 77.896 88.296 73.892 75.92C69.888 63.544 66.248 51.896 71.708 46.8C77.532 40.976 88.816 43.888 100.828 47.164C112.84 50.076 125.216 53.352 135.772 48.984C145.964 44.616 152.516 34.06 158.704 23.504C165.62 12.22 171.808 1.66399 181.272 1.66399C190.736 1.66399 197.288 12.22 204.204 23.14C210.756 33.332 217.308 43.524 227.136 47.892C237.692 52.26 249.704 49.348 261.716 46.8C273.728 43.888 285.012 41.34 290.836 47.164C296.296 52.26 291.928 63.908 287.56 75.92C282.828 88.66 278.096 101.764 282.828 112.684C287.196 123.24 299.936 129.428 311.948 135.616C324.688 141.804 336.336 147.992 336.336 156.728C336.336 157.092 336.336 157.82 336.7 158.184C336.7 158.548 336.336 159.276 336.336 159.64C336.7 166.92 324.688 173.108 311.948 179.296Z" fill="#CE2127"/>
</svg>
